<?xml version="1.0" standalone="no"?>
<!DOCTYPE svg PUBLIC "-//W3C//DTD SVG 20010904//EN"
 "http://www.w3.org/TR/2001/REC-SVG-20010904/DTD/svg10.dtd">
<svg version="1.0" xmlns="http://www.w3.org/2000/svg"
 width="512.000000pt" height="512.000000pt" viewBox="0 0 512.000000 512.000000"
 preserveAspectRatio="xMidYMid meet">
<metadata>
Created by potrace 1.11, written by Peter Selinger 2001-2013
</metadata>
<g transform="translate(0.000000,512.000000) scale(0.100000,-0.100000)"
fill="#000000" stroke="none">
<path d="M2245 4884 c-150 -21 -390 -84 -530 -138 -763 -299 -1312 -961 -1460
-1761 -125 -676 44 -1351 475 -1896 203 -257 484 -481 795 -634 341 -168 649
-239 1035 -239 386 0 694 71 1035 239 469 230 836 596 1065 1060 118 239 189
467 225 725 22 150 25 449 6 590 -108 809 -583 1481 -1296 1831 -217 106 -421
172 -665 215 -137 24 -538 28 -685 8z m-319 -752 c8 -5 11 -55 10 -157 l-1
-150 628 -3 629 -2 -4 155 c-2 97 1 156 7 158 6 1 79 1 163 -1 l152 -4 0 -153
0 -153 113 -4 c93 -3 120 -7 162 -28 66 -32 131 -99 163 -168 l27 -57 0 -1165
0 -1165 -28 -57 c-35 -71 -119 -150 -183 -172 -43 -14 -169 -16 -1213 -16
l-1166 0 -52 24 c-67 32 -128 94 -162 165 l-26 56 0 1160 c0 1096 1 1163 18
1212 23 66 94 146 161 180 44 23 67 27 169 31 l117 4 0 153 c0 83 3 155 7 158
9 9 295 9 309 -1z"/>
<path d="M1462 2168 l3 -863 1095 0 1095 0 3 863 2 862 -1100 0 -1100 0 2
-862z m1886 -160 l-3 -393 -390 0 -390 0 -3 393 -2 392 395 0 395 0 -2 -392z"/>
</g>
</svg>
